# xmcd
# Track frame offsets:
# 150
# 14018
# 31961
# 63434
# 77868
# 92149
# 116910
# 128650
# 145076
# 159806
#
# Disc length: 2270 seconds
# Revision: 0
# Processed by: cddbd v1.4PL0 Copyright (c) Steve Scherf et al.
# Submitted via: VisiTrax 2.9.5.181 - For more info visit www.synapsa.com
#
DISCID=7f08dc0a
DTITLE=Arbee Stidham - Tired Of Wandering
DYEAR=1961
DGENRE=Blues
TTITLE0=Last Goodbye Blues
TTITLE1=You Can't Live In This World By Sourself
TTITLE2=Pawn Shop
TTITLE3=I'm Tired Of Wandering
TTITLE4=I Wan't To Belong To You
TTITLE5=Wee Baby Blues
TTITLE6=You Keep Me Yearning
TTITLE7=My Heart Will Always Belong To You
TTITLE8=People, What Would You Do
TTITLE9=Teenage Kiss
EXTD=
EXTT0=
EXTT1=
EXTT2=
EXTT3=
EXTT4=
EXTT5=
EXTT6=
EXTT7=
EXTT8=
EXTT9=
PLAYORDER=
